<svg width="400" height="400" viewBox="0 0 400 400" fill="none" xmlns="http://www.w3.org/2000/svg">
<mask id="mask0_46_397" style="mask-type:luminance" maskUnits="userSpaceOnUse" x="49" y="5" width="302" height="395">
<path d="M49.0752 5.75488H350.413V400H49.0752V5.75488Z" fill="white"/>
</mask>
<g mask="url(#mask0_46_397)">
<path d="M242.986 252.808L124.823 356.926L259.72 252.208L215.847 226.94L242.986 252.808ZM156.683 154.176L274.846 50.0428L139.964 154.775L183.837 180.029L156.683 154.176ZM185.205 207.396L102.285 159.691L226.432 69.0918L72.7859 130.93L86.4681 219.371L109.848 232.83L128.838 243.756L116.403 230.342C121.38 229.338 126.718 230.072 131.469 232.8C141.768 238.735 145.301 251.864 139.347 262.145C133.393 272.412 120.222 275.934 109.908 269.999C102.977 266.012 99.1128 258.773 99.1278 251.324L66.9071 232.785L49.0752 117.516L326.733 5.75488C289.325 70.3658 251.902 134.977 214.479 199.573L297.384 247.293L173.237 337.892L326.883 276.039L313.216 187.613L289.836 174.154L270.846 163.228L283.281 176.642C278.304 177.646 272.966 176.912 268.215 174.184C257.916 168.249 254.383 155.12 260.337 144.838C266.291 134.572 279.462 131.05 289.776 136.985C296.707 140.972 300.571 148.211 300.556 155.659L332.777 174.199L350.609 289.467L72.9363 401.214C110.359 336.618 147.782 272.007 185.205 207.396Z" fill="url(#paint0_linear_46_397)"/>
</g>
<defs>
<linearGradient id="paint0_linear_46_397" x1="199.842" y1="5.75488" x2="199.842" y2="401.214" gradientUnits="userSpaceOnUse">
<stop stop-color="#8B5CF6"/>
<stop offset="0.524038" stop-color="#D946EF"/>
<stop offset="1" stop-color="#EC4899"/>
</linearGradient>
</defs>
</svg>
